<svg id="Livello_1" data-name="Livello 1" xmlns="http://www.w3.org/2000/svg" width="25.76mm" height="16.77mm" viewBox="0 0 73.01 47.54">
  <title>Logicway_logo</title>
  <polygon points="71.01 46.79 0 39.58 0 28.8 71.01 25.54 71.01 46.79" fill="#1d1d1b"/>
  <g>
    <path d="M134.16,144.36h4l2.27,10.74,2.32-10.74h4.06l-4.32,14.91h-4l-2.33-10.86-2.37,10.86h-4l-4.18-14.91h4.18L132,155.05Z" transform="translate(-105.54 -117.75)" fill="#f6de34"/>
    <path d="M154.81,150.2a6.16,6.16,0,0,0,1.56-.34,1.18,1.18,0,0,0,.84-1.11,1.3,1.3,0,0,0-.65-1.26,4,4,0,0,0-1.89-.35,2.51,2.51,0,0,0-2,.68,2.87,2.87,0,0,0-.56,1.37h-3.76a5.76,5.76,0,0,1,1.1-3.21c1-1.32,2.81-2,5.33-2a9.5,9.5,0,0,1,4.37,1,3.73,3.73,0,0,1,1.91,3.66v6.84c0,.47,0,1.05,0,1.72a2.3,2.3,0,0,0,.23,1,1.43,1.43,0,0,0,.58.45v.58h-4.24a4.1,4.1,0,0,1-.24-.85,7.39,7.39,0,0,1-.11-.9,8.46,8.46,0,0,1-1.87,1.49,5.71,5.71,0,0,1-2.86.72,4.91,4.91,0,0,1-3.37-1.16,4.11,4.11,0,0,1-1.32-3.27,4.25,4.25,0,0,1,2.13-4,9.85,9.85,0,0,1,3.44-1Zm2.38,1.82a5.29,5.29,0,0,1-.75.38,7.27,7.27,0,0,1-1.05.26l-.89.17a5.75,5.75,0,0,0-1.79.53,1.78,1.78,0,0,0-.92,1.65,1.76,1.76,0,0,0,.56,1.45,2.18,2.18,0,0,0,1.37.44,4.12,4.12,0,0,0,2.36-.74,3.14,3.14,0,0,0,1.11-2.69Z" transform="translate(-105.54 -117.75)" fill="#f6de34"/>
    <path d="M165.07,162.12l.49,0a6.46,6.46,0,0,0,1.09,0,1.65,1.65,0,0,0,1.51-1.29,2.47,2.47,0,0,0,.26-.9l-5.48-15.56h4.34l3.25,11,3.08-11h4.14L172.64,159a21.09,21.09,0,0,1-2.34,5.26c-.58.67-1.73,1-3.45,1H166l-.94,0Z" transform="translate(-105.54 -117.75)" fill="#f6de34"/>
  </g>
  <g>
    <path d="M105.83,119.44H110V136H120.1v3.62H105.83Z" transform="translate(-105.54 -117.75)" fill="#f6de34"/>
    <path d="M135.05,137.77a8.21,8.21,0,0,1-11.46,0,9.24,9.24,0,0,1,0-11.2,8.14,8.14,0,0,1,11.46,0,9.28,9.28,0,0,1,0,11.2Zm-3.12-2.16a6.93,6.93,0,0,0,0-6.9,3.1,3.1,0,0,0-2.62-1.21,3.15,3.15,0,0,0-2.64,1.21,6.93,6.93,0,0,0,0,6.9,3.13,3.13,0,0,0,2.64,1.22A3.08,3.08,0,0,0,131.93,135.61Z" transform="translate(-105.54 -117.75)" fill="#f6de34"/>
    <path d="M147.1,124.67a4.74,4.74,0,0,1,2.29,2.17v-2.15h3.8v14.14a7.86,7.86,0,0,1-1,4.34c-1.11,1.68-3.25,2.52-6.4,2.52a8.78,8.78,0,0,1-4.66-1.12,4.17,4.17,0,0,1-2-3.35h4.24a1.8,1.8,0,0,0,.53,1,3.27,3.27,0,0,0,2.12.54,2.84,2.84,0,0,0,2.82-1.41,7.14,7.14,0,0,0,.47-3v-.95a4.92,4.92,0,0,1-1.21,1.43,4.84,4.84,0,0,1-3,.89,5.72,5.72,0,0,1-4.59-2,8.15,8.15,0,0,1-1.71-5.46,9.2,9.2,0,0,1,1.65-5.58,5.45,5.45,0,0,1,4.68-2.27A5.32,5.32,0,0,1,147.1,124.67Zm1.32,10.69a4.77,4.77,0,0,0,.94-3.29,5,5,0,0,0-.89-3.23,2.92,2.92,0,0,0-2.39-1.1,2.82,2.82,0,0,0-2.82,1.93,6.85,6.85,0,0,0-.41,2.52,5.77,5.77,0,0,0,.44,2.31,2.84,2.84,0,0,0,2.83,1.89A3,3,0,0,0,148.42,135.36Z" transform="translate(-105.54 -117.75)" fill="#f6de34"/>
    <path d="M160.83,122.91h-4v-3.59h4Zm-4,1.78h4v14.9h-4Z" transform="translate(-105.54 -117.75)" fill="#f6de34"/>
    <path d="M173.52,130a3.46,3.46,0,0,0-.56-1.5,2.36,2.36,0,0,0-2-.9,2.68,2.68,0,0,0-2.7,2,8,8,0,0,0-.39,2.76,7.33,7.33,0,0,0,.39,2.63,2.6,2.6,0,0,0,2.63,1.86,2.32,2.32,0,0,0,1.94-.74,3.59,3.59,0,0,0,.7-1.91h4a6.56,6.56,0,0,1-1.28,3.36,6.29,6.29,0,0,1-5.44,2.56q-3.6,0-5.29-2.14a8.55,8.55,0,0,1-1.7-5.53,8.73,8.73,0,0,1,1.87-6,6.52,6.52,0,0,1,5.18-2.14,7.78,7.78,0,0,1,4.59,1.26q1.78,1.26,2.11,4.44Z" transform="translate(-105.54 -117.75)" fill="#f6de34"/>
  </g>
  <g>
    <path d="M106.73,118H111v16.53H121v3.62H106.73Z" transform="translate(-105.54 -117.75)" fill="#1d1d1b" stroke="#000" stroke-miterlimit="10" stroke-width="0.25"/>
    <path d="M136,136.33a8.21,8.21,0,0,1-11.46,0,9.27,9.27,0,0,1,0-11.19,8.11,8.11,0,0,1,11.46,0,9.23,9.23,0,0,1,0,11.19Zm-3.12-2.15a5.66,5.66,0,0,0,.92-3.46,5.59,5.59,0,0,0-.92-3.44,3.45,3.45,0,0,0-5.25,0,5.52,5.52,0,0,0-.93,3.44,5.59,5.59,0,0,0,.93,3.46,3.45,3.45,0,0,0,5.25,0Z" transform="translate(-105.54 -117.75)" fill="#1d1d1b" stroke="#000" stroke-miterlimit="10" stroke-width="0.25"/>
    <path d="M148,123.24a4.63,4.63,0,0,1,2.29,2.16v-2.15h3.8v14.14a7.92,7.92,0,0,1-1,4.35q-1.67,2.5-6.4,2.51a8.72,8.72,0,0,1-4.66-1.12,4.12,4.12,0,0,1-2-3.35h4.23a1.71,1.71,0,0,0,.54,1,3.25,3.25,0,0,0,2.12.54,2.84,2.84,0,0,0,2.81-1.41,7.11,7.11,0,0,0,.47-3v-.95a4.92,4.92,0,0,1-1.2,1.43,4.83,4.83,0,0,1-3,.89,5.71,5.71,0,0,1-4.58-2,8.15,8.15,0,0,1-1.72-5.47,9.22,9.22,0,0,1,1.65-5.58,5.47,5.47,0,0,1,4.69-2.26A5.11,5.11,0,0,1,148,123.24Zm1.33,10.68a4.82,4.82,0,0,0,.94-3.29,5,5,0,0,0-.9-3.22A2.9,2.9,0,0,0,147,126.3a2.8,2.8,0,0,0-2.81,1.93,6.67,6.67,0,0,0-.41,2.53,5.84,5.84,0,0,0,.43,2.31A2.84,2.84,0,0,0,147,135,3,3,0,0,0,149.33,133.92Z" transform="translate(-105.54 -117.75)" fill="#1d1d1b" stroke="#000" stroke-miterlimit="10" stroke-width="0.25"/>
    <path d="M161.74,121.47h-4v-3.59h4Zm-4,1.78h4v14.9h-4Z" transform="translate(-105.54 -117.75)" fill="#1d1d1b" stroke="#000" stroke-miterlimit="10" stroke-width="0.25"/>
    <path d="M174.42,128.6a3.45,3.45,0,0,0-.56-1.51,2.36,2.36,0,0,0-2-.9,2.68,2.68,0,0,0-2.7,2,8,8,0,0,0-.38,2.75,7.36,7.36,0,0,0,.38,2.63,2.61,2.61,0,0,0,2.63,1.86,2.31,2.31,0,0,0,1.95-.74,3.76,3.76,0,0,0,.7-1.91h4a6.64,6.64,0,0,1-1.29,3.36,6.25,6.25,0,0,1-5.43,2.56q-3.6,0-5.3-2.13a8.65,8.65,0,0,1-1.7-5.53,8.74,8.74,0,0,1,1.88-6,6.53,6.53,0,0,1,5.17-2.13,7.85,7.85,0,0,1,4.59,1.25q1.78,1.26,2.12,4.45Z" transform="translate(-105.54 -117.75)" fill="#1d1d1b" stroke="#000" stroke-miterlimit="10" stroke-width="0.25"/>
  </g>
</svg>
